# xmcd
# 
# Track frame offsets:
#     150
#     22585
#     42085
#     55665
#     78765
#     94607
#     110072
#     121350
#     139840
#     150675
#     163805
#     183370
#     199887
#     201535
# 
# Disc length: 2935
# 
# Revision: 9
# Processed by: cddbd v1.5.2PL0 Copyright (c) Steve Scherf et al.
# Submitted via: BonkEnc v1.0.8
# 
DISCID=b60b750e
DTITLE=David Byrne - Feelings
DYEAR=1997
DGENRE=Alternativ Pop
TTITLE0=Fuzzy Freaky
TTITLE1=Miss America
TTITLE2=A Soft Seduction
TTITLE3=Dance On Vaseline
TTITLE4=The Gates Of Paradise
TTITLE5=Amnesia
TTITLE6=You Don't Know Me
TTITLE7=Daddy Go Down
TTITLE8=Finite=Alright
TTITLE9=Wicked Little Doll
TTITLE10=Burnt By The Sun
TTITLE11=The Civil Wars
TTITLE12=(21 second passage)
TTITLE13=They Are In Love
EXTD=YEAR: 1997
EXTT0=
EXTT1=
EXTT2=
EXTT3=
EXTT4=
EXTT5=
EXTT6=
EXTT7=
EXTT8=
EXTT9=
EXTT10=
EXTT11=
EXTT12=
EXTT13=
PLAYORDER=
